<?xml version="1.0" standalone="no"?>
<!DOCTYPE svg PUBLIC "-//W3C//DTD SVG 20010904//EN"
 "http://www.w3.org/TR/2001/REC-SVG-20010904/DTD/svg10.dtd">
<svg version="1.0" xmlns="http://www.w3.org/2000/svg"
 width="250.000000pt" height="250.000000pt" viewBox="0 0 250.000000 250.000000"
 preserveAspectRatio="xMidYMid meet">

<g transform="translate(0.000000,250.000000) scale(0.100000,-0.100000)"
fill="#000000" stroke="none">
<path d="M0 1250 l0 -1250 1250 0 1250 0 0 1250 0 1250 -1250 0 -1250 0 0
-1250z m2140 0 l0 -810 -888 2 -887 3 -3 795 c-1 437 0 801 3 808 3 9 191 12
890 12 l885 0 0 -810z"/>
<path d="M370 1890 l0 -160 880 0 880 0 0 160 0 160 -880 0 -880 0 0 -160z
m724 60 c4 -5 5 -14 1 -20 -5 -8 -10 -9 -18 -1 -30 30 -74 -8 -63 -54 8 -32
45 -43 63 -19 9 13 16 15 24 7 15 -15 -16 -43 -50 -43 -15 0 -36 9 -45 19 -18
20 -24 80 -11 101 17 27 74 33 99 10z m-275 -3 c23 -28 23 -71 1 -100 -18 -22
-29 -27 -66 -27 l-44 0 0 70 0 70 49 0 c28 0 53 -6 60 -13z m141 3 c0 -5 -16
-10 -35 -10 -24 0 -35 -5 -35 -15 0 -10 10 -15 30 -15 20 0 30 -5 30 -15 0
-10 -10 -15 -31 -15 -44 0 -37 -34 9 -38 48 -5 39 -22 -13 -22 l-45 0 0 70 0
70 45 0 c25 0 45 -4 45 -10z m270 0 c0 -5 -16 -10 -35 -10 -24 0 -35 -5 -35
-15 0 -10 10 -15 30 -15 20 0 30 -5 30 -15 0 -10 -10 -15 -30 -15 -23 0 -30
-4 -30 -20 0 -16 7 -20 35 -20 19 0 35 -4 35 -10 0 -5 -22 -10 -50 -10 l-50 0
0 70 0 70 50 0 c28 0 50 -4 50 -10z m80 -35 c7 -25 16 -45 20 -45 5 0 15 19
22 43 8 23 22 43 31 45 15 3 17 -7 17 -67 0 -79 -17 -98 -22 -23 l-3 47 -16
-45 c-9 -25 -22 -45 -29 -45 -7 0 -20 20 -29 45 l-16 45 -3 -47 c-5 -74 -22
-56 -22 22 0 62 2 70 19 70 13 0 22 -12 31 -45z m224 8 c-1 -18 2 -33 7 -33
13 0 11 -44 -3 -58 -7 -7 -31 -12 -55 -12 l-43 0 0 71 0 70 48 -3 c46 -3 47
-4 46 -35z m146 27 c0 -5 -16 -10 -35 -10 -24 0 -35 -5 -35 -15 0 -10 10 -15
30 -15 20 0 30 -5 30 -15 0 -10 -10 -15 -30 -15 -23 0 -30 -4 -30 -20 0 -16 7
-20 35 -20 19 0 35 -4 35 -10 0 -5 -22 -10 -50 -10 l-50 0 0 70 0 70 50 0 c28
0 50 -4 50 -10z m127 -6 c3 -9 1 -25 -5 -35 -9 -14 -8 -26 3 -53 14 -32 14
-36 0 -36 -9 0 -21 14 -26 30 -6 17 -17 30 -25 30 -9 0 -14 -11 -14 -30 0 -20
-5 -30 -15 -30 -12 0 -15 14 -15 70 l0 70 45 0 c33 0 47 -5 52 -16z"/>
<path d="M740 1890 c0 -43 3 -50 19 -50 41 0 68 59 39 88 -7 7 -22 12 -35 12
-21 0 -23 -4 -23 -50z"/>
<path d="M1470 1925 c0 -11 7 -15 23 -13 12 2 22 8 22 13 0 6 -10 11 -22 13
-16 2 -23 -2 -23 -13z"/>
<path d="M1470 1865 c0 -18 5 -25 19 -25 26 0 44 23 29 38 -22 22 -48 14 -48
-13z"/>
<path d="M1740 1919 c0 -25 33 -22 38 4 2 12 -3 17 -17 17 -15 0 -21 -6 -21
-21z"/>
<path d="M370 1683 c1 -32 2 -36 13 -22 7 9 28 26 47 38 l35 21 -47 0 -48 0 0
-37z"/>
<path d="M536 1706 c17 -8 40 -26 52 -41 l22 -28 0 42 0 41 -52 0 -53 -1 31
-13z"/>
<path d="M620 1600 l0 -120 38 0 c30 1 34 3 19 11 -26 15 -47 63 -47 108 0 51
39 99 90 111 30 7 26 8 -32 9 l-68 1 0 -120z"/>
<path d="M785 1709 c17 -4 41 -18 53 -29 l22 -21 0 31 c0 30 0 30 -52 29 -48
-1 -50 -2 -23 -10z"/>
<path d="M877 1713 c-4 -3 -7 -25 -7 -47 l0 -41 27 34 c14 18 40 39 57 47 l31
13 -51 1 c-28 0 -54 -3 -57 -7z"/>
<path d="M1046 1706 c17 -8 41 -24 53 -37 l21 -23 0 37 0 37 -52 0 -53 -1 31
-13z"/>
<path d="M1130 1683 l0 -37 29 28 c15 15 41 31 57 36 25 7 20 8 -28 9 l-58 1
0 -37z"/>
<path d="M1287 1709 c17 -5 43 -23 57 -40 l26 -31 0 41 0 41 -57 -1 c-52 -1
-55 -2 -26 -10z"/>
<path d="M1384 1706 c-3 -8 -4 -23 -2 -33 3 -17 7 -15 36 14 l33 33 -31 0
c-17 0 -33 -6 -36 -14z"/>
<path d="M1577 1705 c12 -9 29 -26 38 -38 15 -21 15 -21 15 16 0 36 -1 37 -37
37 -37 0 -37 0 -16 -15z"/>
<path d="M1640 1683 c1 -32 3 -35 13 -23 44 57 125 67 177 23 18 -14 36 -36
40 -47 7 -16 9 -7 9 32 l1 52 -120 0 -120 0 0 -37z"/>
<path d="M1890 1683 c0 -20 1 -34 3 -32 1 2 15 19 31 37 l30 32 -32 0 c-30 0
-32 -2 -32 -37z"/>
<path d="M2070 1717 c0 -1 14 -15 30 -30 l30 -29 0 31 c0 28 -3 31 -30 31 -16
0 -30 -1 -30 -3z"/>
<path d="M1615 1539 c-4 -11 -21 -29 -38 -40 l-32 -19 43 0 42 0 0 40 c0 44
-5 51 -15 19z"/>
<path d="M1870 1551 c0 -5 -12 -23 -26 -40 l-26 -31 31 0 c29 0 31 2 31 40 0
22 -2 40 -5 40 -3 0 -5 -4 -5 -9z"/>
<path d="M870 1517 c0 -35 2 -37 32 -37 l31 0 -24 28 c-13 15 -27 31 -31 37
-5 5 -8 -8 -8 -28z"/>
<path d="M1380 1518 c0 -38 0 -38 42 -38 l42 0 -24 17 c-14 10 -33 27 -42 38
-17 20 -17 19 -18 -17z"/>
<path d="M1890 1516 c0 -36 0 -36 43 -35 33 0 38 2 21 9 -12 4 -31 21 -43 36
l-21 27 0 -37z"/>
<path d="M2107 1524 c-11 -14 -29 -29 -40 -34 -18 -7 -14 -9 21 -9 42 -1 42
-1 42 34 0 19 -1 35 -2 35 -2 0 -11 -12 -21 -26z"/>
<path d="M370 1512 c0 -28 3 -32 27 -32 l26 0 -24 28 c-13 15 -25 29 -26 31
-2 2 -3 -10 -3 -27z"/>
<path d="M582 1509 l-24 -29 26 0 c22 0 26 4 26 30 0 17 -1 30 -2 29 -2 0 -13
-13 -26 -30z"/>
<path d="M1092 1509 l-24 -29 26 0 c22 0 26 4 26 30 0 17 -1 30 -2 29 -2 0
-13 -13 -26 -30z"/>
<path d="M1130 1512 c0 -28 3 -32 27 -32 l26 0 -24 28 c-13 15 -25 29 -26 31
-2 2 -3 -10 -3 -27z"/>
<path d="M1338 1509 l-27 -29 30 0 c26 0 29 3 29 30 0 17 -1 29 -2 29 -2 -1
-15 -14 -30 -30z"/>
<path d="M1640 1512 c0 -28 3 -32 27 -32 l26 0 -24 28 c-13 15 -25 29 -26 31
-2 2 -3 -10 -3 -27z"/>
<path d="M835 1500 c-18 -19 -17 -20 3 -20 15 0 22 6 22 20 0 11 -2 20 -3 20
-2 0 -12 -9 -22 -20z"/>
<path d="M370 1429 l0 -41 26 31 c14 17 40 35 57 40 29 8 26 9 -25 10 l-58 1
0 -41z"/>
<path d="M524 1460 c16 -5 42 -21 57 -36 l29 -28 0 37 0 37 -57 -1 c-49 -1
-54 -2 -29 -9z"/>
<path d="M621 1423 c0 -37 2 -43 9 -27 8 21 50 55 80 67 8 3 -9 6 -37 6 l-53
1 1 -47z"/>
<path d="M790 1459 c14 -6 35 -20 47 -31 l23 -21 0 31 c0 32 -1 32 -47 31 -42
0 -45 -1 -23 -10z"/>
<path d="M877 1463 c-4 -3 -7 -22 -7 -42 l0 -36 23 27 c63 75 174 62 213 -26
13 -31 13 -30 14 27 l0 57 -118 0 c-65 0 -122 -3 -125 -7z"/>
<path d="M1130 1428 l0 -43 23 27 c23 28 63 48 99 48 33 0 88 -31 103 -59 14
-26 14 -25 15 22 l0 47 -120 0 -120 0 0 -42z"/>
<path d="M1387 1463 c-4 -3 -7 -26 -7 -51 l0 -45 23 34 c12 19 38 42 57 51
l35 18 -51 0 c-28 0 -54 -3 -57 -7z"/>
<path d="M1565 1455 c17 -9 38 -25 48 -36 17 -21 17 -21 17 15 l0 36 -47 0
-48 0 30 -15z"/>
<path d="M1640 1423 l1 -48 15 27 c19 36 63 58 113 58 31 0 49 -7 76 -31 l35
-31 0 36 0 36 -120 0 -120 0 0 -47z"/>
<path d="M1890 1429 l0 -41 26 31 c14 17 40 35 57 40 29 8 26 9 -25 10 l-58 1
0 -41z"/>
<path d="M2044 1460 c16 -5 42 -21 57 -36 l29 -28 0 37 0 37 -57 -1 c-49 -1
-54 -2 -29 -9z"/>
<path d="M1100 1287 c-9 -18 -30 -40 -50 -49 l-35 -18 53 0 52 0 0 50 c0 28
-1 50 -2 50 -2 0 -10 -15 -18 -33z"/>
<path d="M1380 1273 l0 -53 48 0 47 0 -33 20 c-18 11 -39 35 -47 53 l-14 32
-1 -52z"/>
<path d="M620 1263 l0 -43 43 0 42 1 -26 16 c-14 9 -33 28 -42 42 l-16 26 -1
-42z"/>
<path d="M870 1263 l0 -43 48 0 47 0 -30 15 c-17 9 -38 28 -48 43 l-16 27 -1
-42z"/>
<path d="M1640 1263 l0 -43 48 0 47 0 -30 15 c-17 9 -38 28 -48 43 l-16 27 -1
-42z"/>
<path d="M370 1258 l0 -38 43 0 42 0 -32 19 c-17 11 -36 28 -42 38 -9 15 -10
12 -11 -19z"/>
<path d="M587 1264 c-11 -14 -29 -29 -40 -34 -18 -7 -14 -9 21 -9 42 -1 42 -1
42 34 0 19 -1 35 -2 35 -2 0 -11 -12 -21 -26z"/>
<path d="M1130 1257 c0 -36 1 -37 37 -37 37 0 37 0 16 15 -12 9 -29 26 -38 38
-15 21 -15 21 -15 -16z"/>
<path d="M1356 1275 c-3 -8 -20 -24 -38 -35 l-33 -20 43 0 c41 0 42 0 42 35 0
38 -4 44 -14 20z"/>
<path d="M1607 1264 c-11 -14 -29 -29 -40 -34 -18 -7 -14 -9 21 -9 42 -1 42
-1 42 34 0 19 -1 35 -2 35 -2 0 -11 -12 -21 -26z"/>
<path d="M1862 1269 c-7 -11 -27 -27 -45 -34 l-32 -14 48 -1 47 0 0 35 c0 41
-1 42 -18 14z"/>
<path d="M1890 1258 l0 -38 43 0 42 0 -32 19 c-17 11 -36 28 -42 38 -9 15 -10
12 -11 -19z"/>
<path d="M2107 1264 c-11 -14 -29 -29 -40 -34 -18 -7 -14 -9 21 -9 42 -1 42
-1 42 34 0 19 -1 35 -2 35 -2 0 -11 -12 -21 -26z"/>
<path d="M850 1270 c0 -6 -15 -19 -32 -30 l-33 -20 38 0 c35 0 37 2 37 30 0
17 -2 30 -5 30 -3 0 -5 -5 -5 -10z"/>
<path d="M370 1163 c1 -32 2 -35 11 -20 6 10 25 27 42 38 l32 19 -42 0 -43 0
0 -37z"/>
<path d="M557 1181 c17 -11 36 -28 42 -38 9 -15 10 -12 11 20 l0 37 -42 0 -43
0 32 -19z"/>
<path d="M620 1153 l0 -48 15 30 c9 17 28 38 43 48 l27 16 -42 1 -43 0 0 -47z"/>
<path d="M801 1198 c2 -2 16 -14 32 -27 l27 -24 0 26 c0 24 -4 27 -32 27 -17
0 -29 -1 -27 -2z"/>
<path d="M871 1153 c0 -42 1 -45 10 -23 6 14 20 35 31 47 l21 23 -31 0 c-32 0
-32 -1 -31 -47z"/>
<path d="M1082 1189 c10 -5 22 -17 27 -27 9 -14 10 -13 11 11 0 23 -4 27 -27
27 -24 -1 -25 -2 -11 -11z"/>
<path d="M1130 1168 c0 -28 2 -30 13 -15 6 9 21 23 32 31 19 15 19 15 -12 16
-30 0 -33 -3 -33 -32z"/>
<path d="M1336 1168 c16 -18 30 -35 32 -37 1 -2 2 12 2 32 0 35 -2 37 -32 37
l-32 0 30 -32z"/>
<path d="M1380 1153 l0 -48 20 33 c11 18 35 39 53 47 l32 14 -52 1 -53 0 0
-47z"/>
<path d="M1567 1180 c17 -10 39 -32 47 -47 l15 -28 1 48 0 47 -47 0 -48 0 32
-20z"/>
<path d="M1640 1168 c0 -28 2 -30 13 -15 6 9 21 23 32 31 19 15 19 15 -12 16
-30 0 -33 -3 -33 -32z"/>
<path d="M1831 1177 c15 -12 32 -31 38 -42 9 -17 10 -14 11 23 l0 42 -37 0
-38 0 26 -23z"/>
<path d="M1890 1163 c1 -32 2 -35 11 -20 6 10 25 27 42 38 l32 19 -42 0 -43 0
0 -37z"/>
<path d="M2077 1181 c17 -11 36 -28 42 -38 9 -15 10 -12 11 20 l0 37 -42 0
-43 0 32 -19z"/>
<path d="M873 1020 l2 -55 123 -3 122 -3 0 41 0 40 -28 -31 c-57 -63 -173 -44
-208 34 l-14 32 3 -55z"/>
<path d="M620 1012 l0 -52 53 0 52 0 -34 18 c-19 9 -43 33 -53 52 l-18 35 0
-53z"/>
<path d="M1858 1020 c-10 -17 -32 -37 -50 -45 l-33 -14 53 -1 52 0 0 45 c0 25
-1 45 -2 45 -2 0 -11 -14 -20 -30z"/>
<path d="M1355 1021 c-3 -11 -20 -29 -38 -40 l-32 -21 43 0 42 0 0 40 c0 44
-5 51 -15 21z"/>
<path d="M1382 1005 c3 -39 4 -40 43 -43 38 -2 39 -1 17 11 -13 7 -32 27 -43
43 l-20 29 3 -40z"/>
<path d="M1615 1019 c-4 -11 -21 -29 -38 -40 l-32 -19 43 0 42 0 0 40 c0 44
-5 51 -15 19z"/>
<path d="M600 1020 c0 -6 -12 -22 -26 -35 l-27 -25 32 0 c29 0 31 2 31 35 0
19 -2 35 -5 35 -3 0 -5 -5 -5 -10z"/>
<path d="M842 1009 c-7 -11 -27 -27 -45 -34 l-32 -14 48 -1 47 0 0 35 c0 41
-1 42 -18 14z"/>
<path d="M1130 998 l0 -38 43 0 42 0 -32 19 c-17 11 -36 28 -42 38 -9 15 -10
12 -11 -19z"/>
<path d="M1640 997 l0 -37 48 0 47 1 -31 13 c-17 8 -39 24 -48 37 l-16 23 0
-37z"/>
<path d="M1890 998 c0 -36 2 -38 33 -38 32 0 32 1 11 18 -12 9 -26 26 -32 37
-10 17 -11 15 -12 -17z"/>
<path d="M370 993 c0 -31 2 -33 32 -33 32 0 32 0 11 15 -13 9 -27 23 -32 33
-9 14 -10 11 -11 -15z"/>
<path d="M2096 989 l-29 -29 32 0 c28 0 31 3 31 30 0 17 -1 29 -2 29 -2 -1
-16 -14 -32 -30z"/>
<path d="M370 909 l0 -41 27 32 c14 18 36 36 47 40 16 7 9 9 -26 9 l-48 1 0
-41z"/>
<path d="M543 935 c16 -8 37 -25 47 -37 l19 -23 1 38 0 37 -47 0 -48 0 28 -15z"/>
<path d="M620 908 l1 -43 16 26 c9 14 28 33 42 42 l26 16 -42 1 -43 0 0 -42z"/>
<path d="M791 948 c2 -2 19 -16 37 -32 l32 -30 0 32 c0 30 -2 32 -37 32 -20 0
-34 -1 -32 -2z"/>
<path d="M870 830 l0 -120 39 0 39 0 -34 34 c-29 29 -34 41 -34 79 0 52 27 92
74 113 31 13 30 13 -26 14 l-58 0 0 -120z"/>
<path d="M1037 943 c13 -2 36 -18 53 -34 l30 -31 0 36 0 36 -52 -1 c-29 -1
-43 -4 -31 -6z"/>
<path d="M1130 908 l0 -42 17 24 c18 27 37 42 68 52 12 3 -1 6 -32 7 l-53 1 0
-42z"/>
<path d="M1287 943 c12 -2 36 -20 53 -39 l30 -35 0 41 0 40 -52 -1 c-29 -1
-43 -4 -31 -6z"/>
<path d="M1380 898 l1 -53 14 32 c8 18 29 42 47 53 l33 20 -47 0 -48 0 0 -52z"/>
<path d="M1560 943 c8 -3 27 -17 43 -31 l27 -26 0 32 c0 31 -1 32 -42 31 -24
0 -36 -3 -28 -6z"/>
<path d="M1640 908 c0 -42 0 -42 16 -19 9 12 30 31 48 42 l31 19 -47 0 -48 0
0 -42z"/>
<path d="M1815 935 c17 -9 38 -25 48 -36 17 -21 17 -21 17 15 l0 36 -47 0 -48
0 30 -15z"/>
<path d="M1891 913 c0 -21 3 -32 6 -25 3 7 21 24 41 37 l37 25 -43 0 -42 0 1
-37z"/>
<path d="M2077 931 c17 -11 36 -28 42 -38 9 -15 10 -12 11 20 l0 37 -42 0 -43
0 32 -19z"/>
<path d="M1380 758 l0 -48 37 0 37 0 -26 28 c-14 15 -30 36 -36 47 -10 17 -11
13 -12 -27z"/>
<path d="M1640 753 l0 -43 43 1 c35 0 38 2 20 9 -13 5 -32 24 -43 42 l-20 33
0 -42z"/>
<path d="M370 747 c0 -36 1 -37 37 -37 37 0 37 0 16 15 -12 9 -29 26 -38 38
-15 21 -15 21 -15 -16z"/>
<path d="M573 744 l-31 -34 34 0 c32 0 34 2 34 35 0 19 -1 34 -2 34 -2 -1 -17
-17 -35 -35z"/>
<path d="M620 747 c0 -36 1 -37 37 -37 37 0 37 0 16 15 -12 9 -29 26 -38 38
-15 21 -15 21 -15 -16z"/>
<path d="M1130 747 c0 -36 1 -37 37 -37 37 0 37 0 16 15 -12 9 -29 26 -38 38
-15 21 -15 21 -15 -16z"/>
<path d="M1333 744 l-31 -34 34 0 c32 0 34 2 34 35 0 19 -1 34 -2 34 -2 -1
-17 -17 -35 -35z"/>
<path d="M1890 747 c0 -36 1 -37 37 -37 37 0 37 0 16 15 -12 9 -29 26 -38 38
-15 21 -15 21 -15 -16z"/>
<path d="M2115 760 c-4 -11 -18 -27 -33 -35 l-27 -14 38 -1 c36 0 37 1 37 35
0 39 -6 45 -15 15z"/>
<path d="M828 739 l-27 -29 30 0 c26 0 29 3 29 30 0 17 -1 29 -2 29 -2 -1 -15
-14 -30 -30z"/>
<path d="M1082 740 l-32 -30 35 0 c32 0 35 2 35 30 0 17 -1 30 -2 30 -2 0 -18
-14 -36 -30z"/>
<path d="M1598 739 l-27 -29 30 0 c26 0 29 3 29 30 0 17 -1 29 -2 29 -2 -1
-15 -14 -30 -30z"/>
<path d="M1842 740 l-32 -30 35 0 c32 0 35 2 35 30 0 17 -1 30 -2 30 -2 0 -18
-14 -36 -30z"/>
<path d="M370 658 c0 -32 0 -32 15 -11 9 13 23 27 33 32 14 9 11 10 -15 11
-31 0 -33 -2 -33 -32z"/>
<path d="M565 674 c11 -8 26 -22 33 -31 10 -15 12 -13 12 15 0 29 -3 32 -32
32 -32 -1 -32 -1 -13 -16z"/>
<path d="M620 648 l0 -43 19 29 c11 16 30 35 43 42 22 13 20 13 -19 14 l-43 0
0 -42z"/>
<path d="M816 671 c18 -11 34 -25 37 -33 3 -7 6 2 6 20 1 31 -1 32 -36 32
l-38 0 31 -19z"/>
<path d="M870 653 l0 -38 23 26 c12 15 31 32 42 38 17 9 14 10 -22 11 l-43 0
0 -37z"/>
<path d="M1057 670 c17 -10 39 -32 47 -47 l15 -28 1 48 0 47 -47 0 -48 0 32
-20z"/>
<path d="M1130 648 l0 -43 19 32 c11 17 28 36 38 42 15 9 12 10 -19 11 l-38 0
0 -42z"/>
<path d="M1321 687 c2 -1 14 -11 27 -21 22 -19 22 -19 22 2 0 17 -6 22 -27 22
-14 0 -24 -1 -22 -3z"/>
<path d="M1380 648 l1 -43 21 29 c12 15 35 34 52 42 l31 13 -52 1 -53 0 0 -42z"/>
<path d="M1571 667 c18 -12 39 -34 46 -47 12 -23 13 -22 13 23 l0 47 -46 0
-47 0 34 -23z"/>
<path d="M1640 663 l0 -26 28 24 c15 13 29 25 31 27 2 1 -10 2 -27 2 -28 0
-32 -3 -32 -27z"/>
<path d="M1823 679 c10 -6 27 -25 38 -42 l19 -32 0 43 0 42 -37 0 c-32 -1 -35
-2 -20 -11z"/>
<path d="M1890 653 c1 -32 2 -35 11 -20 6 10 25 27 42 38 l32 19 -42 0 -43 0
0 -37z"/>
<path d="M2066 680 c12 -4 31 -21 43 -36 l21 -27 0 37 c0 36 0 36 -42 35 -34
0 -39 -2 -22 -9z"/>
<path d="M1130 503 l0 -53 53 0 52 0 -35 18 c-20 10 -42 32 -52 52 l-18 35 0
-52z"/>
<path d="M1110 524 c0 -8 -15 -28 -32 -45 l-32 -29 37 0 37 0 0 45 c0 25 -2
45 -5 45 -3 0 -5 -7 -5 -16z"/>
<path d="M1860 514 c-37 -67 -171 -72 -209 -7 -8 15 -10 11 -11 -19 l0 -38
120 0 120 0 0 45 c0 25 -1 45 -3 45 -2 0 -10 -12 -17 -26z"/>
<path d="M586 504 c-10 -14 -33 -32 -50 -40 l-31 -13 53 -1 52 0 0 40 c0 22
-1 40 -2 40 -2 0 -11 -12 -22 -26z"/>
<path d="M1382 495 c3 -39 4 -40 43 -43 l40 -2 -26 16 c-14 9 -34 29 -43 43
l-16 26 2 -40z"/>
<path d="M1615 511 c-3 -11 -20 -29 -38 -40 l-32 -21 43 0 42 0 0 40 c0 44 -5
51 -15 21z"/>
<path d="M370 488 l0 -38 53 0 52 1 -35 15 c-19 8 -43 25 -52 37 -18 22 -18
22 -18 -15z"/>
<path d="M620 488 c0 -37 1 -38 38 -38 37 0 37 0 15 18 -12 9 -29 26 -37 37
-15 19 -15 18 -16 -17z"/>
<path d="M870 489 c0 -31 15 -43 47 -37 15 3 13 8 -14 35 l-33 31 0 -29z"/>
<path d="M1890 487 c0 -35 2 -37 32 -37 l32 0 -30 32 c-16 18 -30 35 -31 37
-2 2 -3 -12 -3 -32z"/>
<path d="M1342 485 c-13 -13 -34 -26 -45 -28 -12 -2 -1 -5 26 -6 46 -1 47 0
47 29 0 17 -1 30 -2 29 -2 -1 -14 -12 -26 -24z"/>
<path d="M2095 479 l-30 -29 33 0 c29 0 32 3 32 30 0 17 -1 30 -2 29 -2 -1
-16 -14 -33 -30z"/>
<path d="M827 475 l-28 -25 30 0 c26 0 31 4 31 25 0 30 2 30 -33 0z"/>
</g>
</svg>
